<svg xmlns="http://www.w3.org/2000/svg"
 xmlns:xlink="http://www.w3.org/1999/xlink"
 width="33px" height="33px"  viewBox="0 0 33 33">
<path fill-rule="evenodd"  fill="#b2b2b2"
 d="M16.125,1.375 C7.840393,1.375 1.124939,8.090332 1.124939,16.375 C1.124939,24.65918 7.840393,31.374512 16.125,31.374512 C24.409607,31.374512 31.125,24.65918 31.125,16.375 C31.125,8.090332 24.409607,1.375 16.125,1.375 ZM16.125,29.03125 C9.134888,29.03125 3.46875,23.364746 3.46875,16.375 C3.46875,9.384766 9.134888,3.7182617 16.125,3.7182617 C23.11499,3.7182617 28.781189,9.384766 28.781189,16.375 C28.781189,23.364746 23.11499,29.03125 16.125,29.03125 ZM16.125,8.875 C11.983032,8.875977 8.624939,12.232422 8.624939,16.375 C8.624939,20.516602 11.983032,23.875 16.125,23.875 C20.266846,23.875 23.625,20.516602 23.625,16.375 C23.625,12.232422 20.266846,8.875977 16.125,8.875 ZM20.71997,12.763672 C21.451477,13.692383 21.910156,14.842773 21.967834,16.100098 C21.120972,15.92041 20.320862,15.833008 19.575562,15.833008 C19.575562,15.833008 19.575562,15.833008 19.575562,15.833008 C19.575562,15.833008 19.57013,15.833008 19.57013,15.833008 C18.970459,15.833008 18.406494,15.886719 17.875427,15.980957 C17.745422,15.664551 17.615417,15.360352 17.48352,15.069336 C18.666504,14.55127 19.801697,13.812988 20.71997,12.763672 ZM16.125,10.523926 C17.505554,10.523926 18.771729,11.005371 19.774231,11.80957 C19.007019,12.727539 17.99353,13.39209 16.900452,13.862793 C16.131348,12.376465 15.388794,11.3125 14.880737,10.663086 C15.282715,10.575195 15.697388,10.523926 16.125,10.523926 ZM13.539551,11.133301 C13.946045,11.612793 14.759949,12.667969 15.627808,14.316895 C13.861755,14.842285 12.083862,14.964844 11.007141,14.964844 C10.976074,14.964844 10.944946,14.964844 10.91571,14.964844 C10.91571,14.964844 10.91571,14.964844 10.91571,14.964844 C10.734375,14.964844 10.578735,14.961426 10.447815,14.95752 C10.867981,13.27832 12.017883,11.886719 13.539551,11.133301 ZM10.273865,16.375 C10.273865,16.347656 10.274719,16.319824 10.276611,16.290527 C10.443298,16.296875 10.657471,16.302246 10.915588,16.302246 C10.915588,16.302246 10.915588,16.302246 10.915588,16.302246 C12.093018,16.294434 14.1474,16.19629 16.227478,15.5390625 C16.341003,15.787109 16.452759,16.044922 16.564453,16.314453 C15.174622,16.778809 14.079712,17.519043 13.270325,18.257324 C12.490356,18.967285 11.964783,19.669434 11.657166,20.138672 C10.794739,19.119629 10.273865,17.810547 10.273865,16.375 ZM16.125,22.226074 C14.822144,22.226074 13.621887,21.795898 12.647766,21.072266 C12.856445,20.731934 13.299622,20.079102 14.006409,19.402344 C14.732483,18.705566 15.735901,17.987793 17.046936,17.561523 C17.491821,18.810059 17.894714,20.236328 18.202393,21.843262 C17.554993,22.089355 16.856445,22.226074 16.125,22.226074 ZM19.436462,21.187988 C19.13977,19.734863 18.766235,18.425781 18.357056,17.25586 C18.736938,17.20166 19.136108,17.17041 19.557251,17.17041 C19.557251,17.17041 19.5719,17.17041 19.5719,17.17041 C19.5719,17.17041 19.572876,17.17041 19.572876,17.17041 C19.572876,17.17041 19.573792,17.17041 19.573792,17.17041 C20.271423,17.17041 21.03772,17.257324 21.869934,17.44629 C21.582397,18.993164 20.686096,20.325195 19.436462,21.187988 Z"/>
</svg>