<svg xmlns="http://www.w3.org/2000/svg"
 xmlns:xlink="http://www.w3.org/1999/xlink"
 width="34px" height="34px"  viewBox="0 0 34 34">
<path fill-rule="evenodd"  fill="#b2b2b2"
 d="M17.249939,1.9995117 C8.8272705,1.9995117 2.0,8.827148 2.0,17.25 C2.0,25.672852 8.8272705,32.49951 17.249939,32.49951 C25.67273,32.49951 32.5,25.672852 32.5,17.25 C32.5,8.827148 25.67273,1.9995117 17.249939,1.9995117 ZM17.249939,30.117188 C10.143433,30.117188 4.3827515,24.356445 4.3827515,17.25 C4.3827515,10.143555 10.143433,4.382324 17.249939,4.382324 C24.356567,4.382324 30.117126,10.143555 30.117126,17.25 C30.117126,24.356445 24.356567,30.117188 17.249939,30.117188 ZM9.630615,24.868652 C9.630615,24.868652 12.489929,24.868652 12.489929,24.868652 C12.489929,24.868652 12.489929,13.431152 12.489929,13.431152 C12.489929,13.431152 9.630615,13.431152 9.630615,13.431152 C9.630615,13.431152 9.630615,24.868652 9.630615,24.868652 ZM21.068054,13.431152 C18.620117,13.472168 17.41571,15.256348 17.255554,15.336914 C17.255554,15.336914 17.255554,13.431152 17.255554,13.431152 C17.255554,13.431152 14.396179,13.431152 14.396179,13.431152 C14.396179,13.431152 14.396179,24.868652 14.396179,24.868652 C14.396179,24.868652 17.255554,24.868652 17.255554,24.868652 C17.255554,24.868652 17.255554,18.19629 17.255554,18.19629 C17.255554,17.95166 17.858704,15.9921875 20.114868,16.29004 C21.326782,16.36914 21.980225,17.972168 22.021118,18.19629 C22.021118,18.19629 22.021118,24.868652 22.021118,24.868652 C22.021118,24.868652 24.869385,24.881348 24.869385,24.881348 C24.869385,24.881348 24.869385,16.96289 24.869385,16.96289 C24.76886,15.8203125 24.197327,13.47168 21.068054,13.431152 ZM11.060181,9.618164 C10.270935,9.618164 9.630615,10.2578125 9.630615,11.047852 C9.630615,11.838379 10.270935,12.478027 11.060181,12.478027 C11.849609,12.478027 12.489929,11.838379 12.489929,11.047852 C12.489929,10.2578125 11.849609,9.618164 11.060181,9.618164 Z"/>
</svg>