<svg xmlns="http://www.w3.org/2000/svg"
 xmlns:xlink="http://www.w3.org/1999/xlink"
 width="35px" height="34px"  viewBox="0 0 35 34">
<path fill-rule="evenodd"  fill="#b2b2b2"
 d="M17.499939,1.4995117 C8.801086,1.4995117 1.75,8.55127 1.75,17.25 C1.75,25.94873 8.801086,32.99951 17.499939,32.99951 C26.198853,32.99951 33.24994,25.94873 33.24994,17.25 C33.24994,8.55127 26.198853,1.4995117 17.499939,1.4995117 ZM17.499939,30.539062 C10.1604,30.539062 4.2109375,24.589355 4.2109375,17.25 C4.2109375,9.910156 10.1604,3.9609375 17.499939,3.9609375 C24.8396,3.9609375 30.789001,9.910156 30.789001,17.25 C30.789001,24.589355 24.8396,30.539062 17.499939,30.539062 ZM25.375,12.015625 C25.10962,12.172852 24.313782,12.487305 23.571533,12.566406 C24.047485,12.290039 24.752014,11.384766 24.925964,10.666016 C24.468567,10.97998 23.417664,11.438477 22.898865,11.438477 C22.898865,11.438477 22.898865,11.439941 22.899841,11.441406 C22.307434,10.774414 21.474854,10.359375 20.55011,10.359375 C18.75647,10.359375 17.301086,11.925781 17.301086,13.858398 C17.301086,14.126465 17.330688,14.387207 17.384521,14.637695 C17.384521,14.637695 17.383484,14.637695 17.383484,14.637695 C14.949524,14.570801 12.104126,13.256836 10.50061,11.008301 C9.516235,12.844727 10.368042,14.887207 11.485901,15.630859 C11.104309,15.662598 10.398743,15.583984 10.067139,15.236816 C10.044067,16.455078 10.589111,18.069824 12.573242,18.655273 C12.190552,18.877441 11.515747,18.813965 11.220764,18.765137 C11.324585,19.79541 12.662659,21.141113 14.124817,21.141113 C13.603638,21.789062 11.825439,22.96875 9.624878,22.592773 C11.119812,23.573242 12.862671,24.140625 14.707275,24.140625 C19.949402,24.140625 24.020447,19.56543 23.80133,13.921875 C23.80133,13.915039 23.799377,13.908203 23.799377,13.902344 C23.799377,13.887207 23.80133,13.871582 23.80133,13.858398 C23.80133,13.841309 23.799377,13.82373 23.799377,13.805664 C24.276184,13.455566 24.91632,12.834473 25.375,12.015625 Z"/>
</svg>