<svg width="417" height="167" viewBox="0 0 417 167" fill="none" xmlns="http://www.w3.org/2000/svg">
<circle cx="149" cy="85" r="50" fill="#020202"/>
<path d="M135.768 66.52H133.368C132.664 64.664 131.928 62.488 131.16 59.992C130.456 57.496 129.848 55.128 129.336 52.888C131.576 50.968 134.264 49.464 137.4 48.376C140.536 47.224 143.928 46.648 147.576 46.648C150.776 46.648 153.528 47.096 155.832 47.992C158.136 48.888 160.024 50.104 161.496 51.64C163.032 53.176 164.152 54.968 164.856 57.016C165.56 59 165.912 61.08 165.912 63.256C165.912 66.84 165.08 70.52 163.416 74.296C161.752 78.072 159.672 81.752 157.176 85.336C154.744 88.856 152.088 92.184 149.208 95.32C146.328 98.456 143.672 101.208 141.24 103.576L137.208 107.32V107.704L142.584 107.128H159.096L163.8 96.376H166.2C166.328 97.784 166.456 99.32 166.584 100.984C166.712 102.648 166.808 104.344 166.872 106.072C167 107.736 167.096 109.368 167.16 110.968C167.224 112.504 167.256 113.848 167.256 115H127.608V111.928C129.016 110.456 130.712 108.664 132.696 106.552C134.744 104.44 136.856 102.104 139.032 99.544C141.208 96.984 143.352 94.264 145.464 91.384C147.64 88.504 149.56 85.592 151.224 82.648C152.888 79.64 154.232 76.664 155.256 73.72C156.344 70.776 156.888 67.96 156.888 65.272C156.888 63.416 156.632 61.656 156.12 59.992C155.672 58.328 154.968 56.888 154.008 55.672C153.048 54.392 151.864 53.4 150.456 52.696C149.112 51.992 147.544 51.64 145.752 51.64C144.408 51.64 143.224 51.736 142.2 51.928C141.176 52.12 140.056 52.408 138.84 52.792L135.768 66.52Z" fill="white"/>
<path d="M1.44 54.304C3.872 52.768 6.432 51.68 9.12 51.04V42.88C9.952 42.176 10.912 41.568 12 41.056C13.152 40.48 14.272 39.936 15.36 39.424H17.76V52H32.16V56.8H17.76V84.64C17.76 88.48 18.368 91.2 19.584 92.8C20.8 94.4 22.624 95.2 25.056 95.2C26.208 95.2 27.648 95.136 29.376 95.008C31.104 94.816 32.576 94.496 33.792 94.048L34.464 95.488C33.952 96.064 33.216 96.672 32.256 97.312C31.36 97.952 30.304 98.56 29.088 99.136C27.936 99.712 26.656 100.192 25.248 100.576C23.84 100.96 22.4 101.152 20.928 101.152C17.088 101.152 14.144 100.064 12.096 97.888C10.112 95.712 9.12 92.192 9.12 87.328V56.8H1.44V54.304ZM39.561 76C39.561 71.968 40.073 68.416 41.097 65.344C42.185 62.208 43.721 59.584 45.705 57.472C47.689 55.296 50.057 53.664 52.809 52.576C55.625 51.424 58.729 50.848 62.121 50.848C66.089 50.848 69.513 51.456 72.393 52.672C75.273 53.888 77.609 55.616 79.401 57.856C81.257 60.032 82.601 62.656 83.433 65.728C84.329 68.8 84.777 72.224 84.777 76C84.777 84.064 82.729 90.272 78.633 94.624C74.537 98.976 69.033 101.152 62.121 101.152C58.281 101.152 54.953 100.576 52.137 99.424C49.321 98.208 46.985 96.512 45.129 94.336C43.273 92.096 41.865 89.44 40.905 86.368C40.009 83.232 39.561 79.776 39.561 76ZM48.777 76C48.777 78.88 49.033 81.6 49.545 84.16C50.121 86.72 50.985 88.96 52.137 90.88C53.353 92.736 54.921 94.208 56.841 95.296C58.761 96.384 61.065 96.928 63.753 96.928C67.209 96.928 70.025 95.232 72.201 91.84C74.441 88.448 75.561 83.168 75.561 76C75.561 73.056 75.273 70.336 74.697 67.84C74.185 65.28 73.353 63.072 72.201 61.216C71.049 59.296 69.577 57.792 67.785 56.704C65.993 55.616 63.849 55.072 61.353 55.072C57.577 55.072 54.537 56.768 52.233 60.16C49.929 63.552 48.777 68.832 48.777 76ZM228.83 59.2C228.126 59.584 227.23 60.384 226.142 61.6C225.118 62.752 224.19 64.48 223.358 66.784V95.296C224.638 95.424 225.918 95.68 227.198 96.064C228.478 96.384 229.758 96.896 231.038 97.6V100H208.382V97.6C209.534 96.96 210.622 96.48 211.646 96.16C212.67 95.84 213.694 95.552 214.718 95.296V57.568L208.382 56.8V54.304C210.43 53.408 212.542 52.704 214.718 52.192C216.894 51.616 218.974 51.168 220.958 50.848H223.358V61.024H223.742C224.318 59.744 225.118 58.464 226.142 57.184C227.23 55.904 228.446 54.752 229.79 53.728C231.198 52.704 232.702 51.936 234.302 51.424C235.966 50.848 237.662 50.656 239.39 50.848C239.838 51.68 240.222 52.608 240.542 53.632C240.926 54.592 241.278 55.616 241.598 56.704V59.2H228.83ZM285.066 93.28C284.554 94.368 283.754 95.392 282.666 96.352C281.578 97.312 280.33 98.144 278.922 98.848C277.514 99.552 275.978 100.096 274.314 100.48C272.65 100.928 270.954 101.152 269.226 101.152C265.45 101.152 262.122 100.576 259.242 99.424C256.362 98.208 253.962 96.512 252.042 94.336C250.122 92.096 248.65 89.44 247.626 86.368C246.666 83.296 246.186 79.84 246.186 76C246.186 67.808 248.074 61.568 251.85 57.28C255.626 52.992 260.97 50.848 267.882 50.848C270.122 50.848 272.33 51.168 274.506 51.808C276.682 52.384 278.602 53.376 280.266 54.784C281.994 56.192 283.37 58.08 284.394 60.448C285.482 62.752 286.026 65.632 286.026 69.088C286.026 70.176 285.962 71.296 285.834 72.448C285.77 73.536 285.61 74.72 285.354 76H255.402C255.402 78.688 255.722 81.216 256.362 83.584C257.066 85.888 258.09 87.904 259.434 89.632C260.778 91.36 262.474 92.736 264.522 93.76C266.57 94.72 268.97 95.2 271.722 95.2C273.962 95.2 276.234 94.88 278.538 94.24C280.842 93.6 282.57 92.768 283.722 91.744L285.066 93.28ZM267.498 55.072C263.85 55.072 261.066 56.32 259.146 58.816C257.226 61.248 256.074 65.568 255.69 71.776H276.81C276.874 71.2 276.906 70.656 276.906 70.144C276.97 69.568 277.002 69.024 277.002 68.512C277.002 64.416 276.234 61.152 274.698 58.72C273.162 56.288 270.762 55.072 267.498 55.072ZM345.923 100H325.283V97.6C327.011 96.704 328.899 95.936 330.947 95.296V72.544C330.947 67.68 330.243 63.84 328.835 61.024C327.427 58.208 324.867 56.8 321.155 56.8C319.555 56.8 318.051 57.088 316.643 57.664C315.299 58.24 314.083 59.04 312.995 60.064C311.971 61.024 311.075 62.144 310.307 63.424C309.539 64.64 308.931 65.92 308.483 67.264V95.296C310.467 95.68 312.387 96.448 314.243 97.6V100H293.507V97.6C295.107 96.768 297.219 96 299.843 95.296V57.568L293.507 56.8V54.304C295.171 53.6 297.091 52.96 299.267 52.384C301.443 51.808 303.715 51.296 306.083 50.848H308.483V61.6H308.579C309.923 58.656 311.843 56.128 314.339 54.016C316.899 51.904 319.971 50.848 323.555 50.848C326.115 50.848 328.387 51.168 330.371 51.808C332.419 52.384 334.115 53.44 335.459 54.976C336.803 56.512 337.827 58.592 338.531 61.216C339.235 63.776 339.587 67.04 339.587 71.008V95.296C342.147 95.744 344.259 96.512 345.923 97.6V100ZM348.971 54.304C351.403 52.768 353.963 51.68 356.651 51.04V42.88C357.483 42.176 358.443 41.568 359.531 41.056C360.683 40.48 361.803 39.936 362.891 39.424H365.291V52H379.691V56.8H365.291V84.64C365.291 88.48 365.899 91.2 367.115 92.8C368.331 94.4 370.155 95.2 372.587 95.2C373.739 95.2 375.179 95.136 376.907 95.008C378.635 94.816 380.107 94.496 381.323 94.048L381.995 95.488C381.483 96.064 380.747 96.672 379.787 97.312C378.891 97.952 377.835 98.56 376.619 99.136C375.467 99.712 374.187 100.192 372.779 100.576C371.371 100.96 369.931 101.152 368.459 101.152C364.619 101.152 361.675 100.064 359.627 97.888C357.643 95.712 356.651 92.192 356.651 87.328V56.8H348.971V54.304Z" fill="#888888"/>
<path d="M201.16 160L200.08 163.552H199.456C199.376 162.768 199.312 161.976 199.264 161.176C199.232 160.376 199.216 159.592 199.216 158.824H200.848C201.04 158.6 201.256 158.248 201.496 157.768C201.736 157.288 201.96 156.672 202.168 155.92C202.392 155.152 202.576 154.24 202.72 153.184C202.88 152.112 202.96 150.864 202.96 149.44C202.624 149.344 202.32 149.224 202.048 149.08C201.776 148.936 201.528 148.784 201.304 148.624V148H211.504V148.624C211.072 148.912 210.544 149.104 209.92 149.2V158.824H212.056C212.072 159.592 212.056 160.376 212.008 161.176C211.96 161.976 211.888 162.768 211.792 163.552H211.192L210.112 160H201.16ZM204.28 149.2C204.28 150.64 204.208 151.896 204.064 152.968C203.92 154.04 203.744 154.96 203.536 155.728C203.344 156.48 203.136 157.112 202.912 157.624C202.688 158.12 202.488 158.52 202.312 158.824H207.76V149.2H204.28ZM213.742 154C213.742 152.992 213.87 152.104 214.126 151.336C214.398 150.552 214.782 149.896 215.278 149.368C215.774 148.824 216.366 148.416 217.054 148.144C217.758 147.856 218.534 147.712 219.382 147.712C220.374 147.712 221.23 147.864 221.95 148.168C222.67 148.472 223.254 148.904 223.702 149.464C224.166 150.008 224.502 150.664 224.71 151.432C224.934 152.2 225.046 153.056 225.046 154C225.046 156.016 224.534 157.568 223.51 158.656C222.486 159.744 221.11 160.288 219.382 160.288C218.422 160.288 217.59 160.144 216.886 159.856C216.182 159.552 215.598 159.128 215.134 158.584C214.67 158.024 214.318 157.36 214.078 156.592C213.854 155.808 213.742 154.944 213.742 154ZM216.046 154C216.046 154.72 216.11 155.4 216.238 156.04C216.382 156.68 216.598 157.24 216.886 157.72C217.19 158.184 217.582 158.552 218.062 158.824C218.542 159.096 219.118 159.232 219.79 159.232C220.654 159.232 221.358 158.808 221.902 157.96C222.462 157.112 222.742 155.792 222.742 154C222.742 153.264 222.67 152.584 222.526 151.96C222.398 151.32 222.19 150.768 221.902 150.304C221.614 149.824 221.246 149.448 220.798 149.176C220.35 148.904 219.814 148.768 219.19 148.768C218.246 148.768 217.486 149.192 216.91 150.04C216.334 150.888 216.046 152.208 216.046 154ZM230.991 160H226.767V159.4C227.295 159.144 227.823 158.952 228.351 158.824L228.711 149.44C228.375 149.312 228.079 149.176 227.823 149.032C227.567 148.888 227.335 148.752 227.127 148.624V148H231.807L234.279 155.008L234.735 156.664H234.807L235.311 154.984L237.879 148H242.415V148.624C242.207 148.752 241.975 148.864 241.719 148.96C241.463 149.056 241.167 149.136 240.831 149.2L241.311 158.824C241.839 158.92 242.367 159.112 242.895 159.4V160H237.807V159.4C237.967 159.32 238.159 159.232 238.383 159.136C238.607 159.04 238.895 158.936 239.247 158.824L238.767 149.104H238.575L234.639 160H233.991L230.103 149.104H229.911L229.551 158.824C230.127 159 230.607 159.192 230.991 159.4V160ZM253.488 156.856C253.488 157.208 253.496 157.512 253.512 157.768C253.528 158.024 253.544 158.296 253.56 158.584L255.216 158.824V159.328C254.816 159.536 254.368 159.72 253.872 159.88C253.392 160.04 252.928 160.16 252.48 160.24H251.88C251.72 159.872 251.624 159.472 251.592 159.04C251.56 158.592 251.536 158.104 251.52 157.576H251.4C251.336 157.896 251.208 158.224 251.016 158.56C250.84 158.88 250.6 159.168 250.296 159.424C250.008 159.68 249.664 159.888 249.264 160.048C248.864 160.208 248.408 160.288 247.896 160.288C246.92 160.288 246.12 159.992 245.496 159.4C244.888 158.808 244.584 158.032 244.584 157.072C244.584 156.336 244.728 155.736 245.016 155.272C245.32 154.792 245.76 154.416 246.336 154.144C246.912 153.872 247.624 153.68 248.472 153.568C249.32 153.44 250.304 153.344 251.424 153.28C251.488 152.592 251.504 151.976 251.472 151.432C251.456 150.872 251.368 150.4 251.208 150.016C251.064 149.616 250.84 149.312 250.536 149.104C250.248 148.88 249.864 148.768 249.384 148.768C249.16 148.768 248.904 148.784 248.616 148.816C248.344 148.832 248.072 148.896 247.8 149.008L246.672 151.888H246.048C245.888 151.408 245.744 150.912 245.616 150.4C245.504 149.888 245.432 149.384 245.4 148.888C246.008 148.52 246.68 148.232 247.416 148.024C248.168 147.816 249 147.712 249.912 147.712C250.728 147.712 251.376 147.832 251.856 148.072C252.352 148.296 252.728 148.592 252.984 148.96C253.24 149.328 253.408 149.736 253.488 150.184C253.568 150.632 253.608 151.08 253.608 151.528C253.608 152.488 253.584 153.416 253.536 154.312C253.504 155.192 253.488 156.04 253.488 156.856ZM248.856 158.8C249.256 158.8 249.608 158.72 249.912 158.56C250.216 158.4 250.472 158.208 250.68 157.984C250.888 157.76 251.056 157.536 251.184 157.312C251.312 157.072 251.4 156.872 251.448 156.712V154.192C250.52 154.192 249.76 154.24 249.168 154.336C248.576 154.432 248.112 154.584 247.776 154.792C247.44 155 247.208 155.264 247.08 155.584C246.952 155.888 246.888 156.24 246.888 156.64C246.888 157.328 247.064 157.864 247.416 158.248C247.768 158.616 248.248 158.8 248.856 158.8ZM262.538 148H267.626V148.624C267.45 148.72 267.242 148.816 267.002 148.912C266.778 149.008 266.506 149.104 266.186 149.2V155.776L265.922 158.008H266.042L266.978 156.208L272.114 148H275.354V148.624C274.842 148.912 274.314 149.104 273.77 149.2V158.824C274.074 158.904 274.362 158.992 274.634 159.088C274.906 159.168 275.146 159.272 275.354 159.4V160H270.266V159.4C270.714 159.144 271.194 158.952 271.706 158.824V151.96L271.946 150.064H271.826L270.914 151.864L265.826 160H262.538V159.4C262.81 159.272 263.074 159.168 263.33 159.088C263.586 158.992 263.85 158.904 264.122 158.824V149.2C263.498 149.104 262.97 148.912 262.538 148.624V148ZM289.933 148H294.565V148.624C294.405 148.752 294.189 148.864 293.917 148.96C293.661 149.056 293.341 149.168 292.957 149.296C292.413 149.952 291.837 150.616 291.229 151.288C290.621 151.96 289.981 152.632 289.309 153.304C289.661 153.688 290.029 154.112 290.413 154.576C290.813 155.04 291.213 155.52 291.613 156.016C292.013 156.512 292.413 157 292.813 157.48C293.213 157.96 293.605 158.408 293.989 158.824L295.117 159.4V160H292.309L291.541 159.448C290.821 158.584 290.165 157.72 289.573 156.856C288.981 155.992 288.381 155.144 287.773 154.312H286.813V158.824C287.133 158.904 287.421 158.992 287.677 159.088C287.949 159.168 288.181 159.272 288.373 159.4V160H283.069V159.4C283.501 159.144 284.029 158.952 284.653 158.824V149.2C284.093 149.088 283.565 148.896 283.069 148.624V148H287.989V148.624C287.829 148.736 287.653 148.84 287.461 148.936C287.285 149.032 287.069 149.12 286.813 149.2V153.688L287.917 153.448C288.557 152.712 289.165 152.024 289.741 151.384C290.317 150.744 290.853 150.048 291.349 149.296C291.077 149.184 290.821 149.08 290.581 148.984C290.357 148.872 290.141 148.752 289.933 148.624V148ZM306.661 156.496C306.661 157.136 306.517 157.688 306.229 158.152C305.941 158.6 305.549 158.968 305.053 159.256C304.573 159.544 304.013 159.76 303.373 159.904C302.733 160.032 302.061 160.096 301.357 160.096C300.845 160.096 300.437 160.088 300.133 160.072C299.829 160.072 299.573 160.064 299.365 160.048C299.157 160.032 298.981 160.016 298.837 160C298.693 160 298.533 160 298.357 160H296.053V159.4C296.549 159.144 297.077 158.952 297.637 158.824V149.2C297.029 149.088 296.501 148.896 296.053 148.624V148H298.213C298.597 148 298.925 148 299.197 148C299.469 147.984 299.725 147.968 299.965 147.952C300.205 147.936 300.445 147.928 300.685 147.928C300.925 147.912 301.189 147.904 301.477 147.904C302.885 147.904 303.981 148.12 304.765 148.552C305.549 148.968 305.941 149.704 305.941 150.76C305.941 151.144 305.861 151.488 305.701 151.792C305.541 152.096 305.333 152.36 305.077 152.584C304.821 152.808 304.533 153 304.213 153.16C303.893 153.304 303.581 153.408 303.277 153.472C303.725 153.504 304.149 153.592 304.549 153.736C304.965 153.88 305.325 154.08 305.629 154.336C305.949 154.576 306.197 154.88 306.373 155.248C306.565 155.6 306.661 156.016 306.661 156.496ZM299.797 158.968C300.021 159.016 300.301 159.04 300.637 159.04C300.989 159.04 301.277 159.04 301.501 159.04C302.445 159.04 303.149 158.84 303.613 158.44C304.077 158.024 304.309 157.44 304.309 156.688C304.309 155.904 304.029 155.32 303.469 154.936C302.909 154.536 302.189 154.336 301.309 154.336H299.797V158.968ZM299.797 153.616L302.461 153.376C302.749 153.232 303.037 152.968 303.325 152.584C303.629 152.184 303.781 151.664 303.781 151.024C303.781 150.24 303.541 149.704 303.061 149.416C302.597 149.112 301.909 148.96 300.997 148.96C300.821 148.96 300.621 148.968 300.397 148.984C300.173 148.984 299.973 149.008 299.797 149.056V153.616ZM317.637 156.856C317.637 157.208 317.645 157.512 317.661 157.768C317.677 158.024 317.693 158.296 317.709 158.584L319.365 158.824V159.328C318.965 159.536 318.517 159.72 318.021 159.88C317.541 160.04 317.077 160.16 316.629 160.24H316.029C315.869 159.872 315.773 159.472 315.741 159.04C315.709 158.592 315.685 158.104 315.669 157.576H315.549C315.485 157.896 315.357 158.224 315.165 158.56C314.989 158.88 314.749 159.168 314.445 159.424C314.157 159.68 313.813 159.888 313.413 160.048C313.013 160.208 312.557 160.288 312.045 160.288C311.069 160.288 310.269 159.992 309.645 159.4C309.037 158.808 308.733 158.032 308.733 157.072C308.733 156.336 308.877 155.736 309.165 155.272C309.469 154.792 309.909 154.416 310.485 154.144C311.061 153.872 311.773 153.68 312.621 153.568C313.469 153.44 314.453 153.344 315.573 153.28C315.637 152.592 315.653 151.976 315.621 151.432C315.605 150.872 315.517 150.4 315.357 150.016C315.213 149.616 314.989 149.312 314.685 149.104C314.397 148.88 314.013 148.768 313.533 148.768C313.309 148.768 313.053 148.784 312.765 148.816C312.493 148.832 312.221 148.896 311.949 149.008L310.821 151.888H310.197C310.037 151.408 309.893 150.912 309.765 150.4C309.653 149.888 309.581 149.384 309.549 148.888C310.157 148.52 310.829 148.232 311.565 148.024C312.317 147.816 313.149 147.712 314.061 147.712C314.877 147.712 315.525 147.832 316.005 148.072C316.501 148.296 316.877 148.592 317.133 148.96C317.389 149.328 317.557 149.736 317.637 150.184C317.717 150.632 317.757 151.08 317.757 151.528C317.757 152.488 317.733 153.416 317.685 154.312C317.653 155.192 317.637 156.04 317.637 156.856ZM313.005 158.8C313.405 158.8 313.757 158.72 314.061 158.56C314.365 158.4 314.621 158.208 314.829 157.984C315.037 157.76 315.205 157.536 315.333 157.312C315.461 157.072 315.549 156.872 315.597 156.712V154.192C314.669 154.192 313.909 154.24 313.317 154.336C312.725 154.432 312.261 154.584 311.925 154.792C311.589 155 311.357 155.264 311.229 155.584C311.101 155.888 311.037 156.24 311.037 156.64C311.037 157.328 311.213 157.864 311.565 158.248C311.917 158.616 312.397 158.8 313.005 158.8ZM325.986 164.8H320.658V164.2C321.202 163.944 321.73 163.752 322.242 163.624V149.392L320.658 149.2V148.576C321.17 148.352 321.69 148.176 322.218 148.048C322.762 147.904 323.29 147.792 323.802 147.712H324.402V150.4H324.426C324.746 149.584 325.194 148.936 325.77 148.456C326.346 147.96 327.098 147.712 328.026 147.712C329.45 147.712 330.554 148.184 331.338 149.128C332.122 150.072 332.514 151.608 332.514 153.736C332.514 154.744 332.378 155.656 332.106 156.472C331.85 157.288 331.474 157.976 330.978 158.536C330.498 159.096 329.906 159.528 329.202 159.832C328.514 160.136 327.746 160.288 326.898 160.288C326.306 160.288 325.842 160.248 325.506 160.168C325.17 160.104 324.802 159.984 324.402 159.808V163.624C324.658 163.656 324.914 163.712 325.17 163.792C325.426 163.888 325.698 164.024 325.986 164.2V164.8ZM327.258 149.2C326.474 149.2 325.85 149.448 325.386 149.944C324.922 150.44 324.594 151.12 324.402 151.984V158.704C324.69 158.88 325.01 159.016 325.362 159.112C325.73 159.192 326.202 159.232 326.778 159.232C327.306 159.232 327.778 159.096 328.194 158.824C328.626 158.552 328.986 158.168 329.274 157.672C329.578 157.176 329.81 156.6 329.97 155.944C330.13 155.272 330.21 154.536 330.21 153.736C330.21 153.08 330.154 152.48 330.042 151.936C329.946 151.376 329.778 150.896 329.538 150.496C329.314 150.08 329.01 149.76 328.626 149.536C328.258 149.312 327.802 149.2 327.258 149.2ZM341.725 160H336.397V159.4C336.893 159.144 337.421 158.952 337.981 158.824V149.056H335.749L334.693 151.936H334.069C333.989 151.248 333.925 150.576 333.877 149.92C333.829 149.248 333.797 148.608 333.781 148H344.341C344.325 148.576 344.293 149.208 344.245 149.896C344.213 150.568 344.149 151.248 344.053 151.936H343.429L342.373 149.056H340.141V158.824C340.893 159.016 341.421 159.208 341.725 159.4V160ZM345.952 148H351.04V148.624C350.864 148.72 350.656 148.816 350.416 148.912C350.192 149.008 349.92 149.104 349.6 149.2V155.776L349.336 158.008H349.456L350.392 156.208L355.528 148H358.768V148.624C358.256 148.912 357.728 149.104 357.184 149.2V158.824C357.488 158.904 357.776 158.992 358.048 159.088C358.32 159.168 358.56 159.272 358.768 159.4V160H353.68V159.4C354.128 159.144 354.608 158.952 355.12 158.824V151.96L355.36 150.064H355.24L354.328 151.864L349.24 160H345.952V159.4C346.224 159.272 346.488 159.168 346.744 159.088C347 158.992 347.264 158.904 347.536 158.824V149.2C346.912 149.104 346.384 148.912 345.952 148.624V148ZM365.783 164.8H360.455V164.2C360.999 163.944 361.527 163.752 362.039 163.624V149.392L360.455 149.2V148.576C360.967 148.352 361.487 148.176 362.015 148.048C362.559 147.904 363.087 147.792 363.599 147.712H364.199V150.4H364.223C364.543 149.584 364.991 148.936 365.567 148.456C366.143 147.96 366.895 147.712 367.823 147.712C369.247 147.712 370.351 148.184 371.135 149.128C371.919 150.072 372.311 151.608 372.311 153.736C372.311 154.744 372.175 155.656 371.903 156.472C371.647 157.288 371.271 157.976 370.775 158.536C370.295 159.096 369.703 159.528 368.999 159.832C368.311 160.136 367.543 160.288 366.695 160.288C366.103 160.288 365.639 160.248 365.303 160.168C364.967 160.104 364.599 159.984 364.199 159.808V163.624C364.455 163.656 364.711 163.712 364.967 163.792C365.223 163.888 365.495 164.024 365.783 164.2V164.8ZM367.055 149.2C366.271 149.2 365.647 149.448 365.183 149.944C364.719 150.44 364.391 151.12 364.199 151.984V158.704C364.487 158.88 364.807 159.016 365.159 159.112C365.527 159.192 365.999 159.232 366.575 159.232C367.103 159.232 367.575 159.096 367.991 158.824C368.423 158.552 368.783 158.168 369.071 157.672C369.375 157.176 369.607 156.6 369.767 155.944C369.927 155.272 370.007 154.536 370.007 153.736C370.007 153.08 369.951 152.48 369.839 151.936C369.743 151.376 369.575 150.896 369.335 150.496C369.111 150.08 368.807 149.76 368.423 149.536C368.055 149.312 367.599 149.2 367.055 149.2ZM377.985 152.896C378.257 152.864 378.561 152.824 378.897 152.776C379.233 152.728 379.721 152.704 380.361 152.704C381.561 152.704 382.521 152.984 383.241 153.544C383.977 154.104 384.345 154.984 384.345 156.184C384.345 156.824 384.225 157.392 383.985 157.888C383.761 158.368 383.441 158.776 383.025 159.112C382.609 159.432 382.113 159.68 381.537 159.856C380.961 160.016 380.329 160.096 379.641 160.096C379.209 160.096 378.721 160.08 378.177 160.048C377.649 160.016 377.081 160 376.473 160H374.241V159.4C374.513 159.24 374.777 159.12 375.033 159.04C375.289 158.96 375.553 158.888 375.825 158.824V149.2C375.521 149.152 375.241 149.08 374.985 148.984C374.729 148.872 374.481 148.752 374.241 148.624V148H379.425V148.624C379.057 148.848 378.577 149.04 377.985 149.2V152.896ZM377.985 158.968C378.193 158.984 378.401 159 378.609 159.016C378.817 159.032 379.033 159.04 379.257 159.04C381.065 159.04 381.969 158.08 381.969 156.16C381.969 155.712 381.897 155.336 381.753 155.032C381.625 154.712 381.441 154.464 381.201 154.288C380.977 154.096 380.713 153.96 380.409 153.88C380.105 153.8 379.785 153.76 379.449 153.76C379.225 153.76 378.985 153.768 378.729 153.784C378.473 153.784 378.225 153.808 377.985 153.856V158.968ZM390.273 160H385.113V159.4C385.337 159.288 385.561 159.184 385.785 159.088C386.009 158.992 386.257 158.904 386.529 158.824V149.2C385.921 149.088 385.441 148.896 385.089 148.624V148H390.273V148.624C390.081 148.752 389.849 148.864 389.577 148.96C389.305 149.04 389.009 149.12 388.689 149.2V158.824C388.961 158.904 389.225 158.992 389.481 159.088C389.737 159.168 390.001 159.272 390.273 159.4V160Z" fill="#888888"/>
</svg>
